<svg width="24" height="24" viewBox="0 0 24 24" fill="none" xmlns="http://www.w3.org/2000/svg">
<path fill-rule="evenodd" clip-rule="evenodd" d="M14.4614 2.30508C14.7886 2.38787 15.0015 2.68633 15.0776 3.01511C15.2585 3.79693 15.7507 4.50461 16.5005 4.9375C17.1895 5.33529 17.9707 5.42872 18.6884 5.2595C19.0165 5.18215 19.3779 5.24076 19.5972 5.49671C20.3984 6.4317 21.0299 7.51632 21.4441 8.70289C21.5694 9.0617 21.3873 9.44185 21.094 9.68352C20.4262 10.2338 20.0004 11.0672 20.0004 12C20.0004 12.9328 20.4262 13.7662 21.094 14.3165C21.3873 14.5581 21.5694 14.9383 21.4441 15.2971C21.03 16.4835 20.3985 17.5681 19.5975 18.503C19.3781 18.759 19.0167 18.8176 18.6886 18.7402C17.9708 18.5709 17.1896 18.6643 16.5005 19.0621C15.7506 19.4951 15.2584 20.2029 15.0775 20.9848C15.0014 21.3136 14.7885 21.6122 14.4613 21.695C13.674 21.8942 12.8496 22 12.0004 22C11.1513 22 10.3269 21.8942 9.5397 21.695C9.21251 21.6122 8.99953 21.3137 8.92347 20.9848C8.74262 20.2029 8.25036 19.4951 7.50047 19.0621C6.8114 18.6643 6.0301 18.5709 5.31231 18.7402C4.98421 18.8176 4.62277 18.759 4.40343 18.503C3.60239 17.5681 2.97093 16.4836 2.55674 15.2971C2.43147 14.9383 2.61356 14.5582 2.90687 14.3165C3.57469 13.7663 4.00047 12.9329 4.00047 12C4.00047 11.0671 3.57469 10.2337 2.90687 9.68351C2.61356 9.44184 2.43148 9.06169 2.55674 8.70287C2.97098 7.5163 3.60253 6.43167 4.4037 5.49667C4.62302 5.24072 4.98443 5.18212 5.3125 5.25948C6.03023 5.42873 6.81146 5.33531 7.50048 4.9375C8.25028 4.5046 8.74251 3.79691 8.92342 3.01508C8.99949 2.6863 9.21247 2.38783 9.53963 2.30504C10.3269 2.10584 11.1513 2 12.0004 2C12.8496 2 13.6741 2.10585 14.4614 2.30508Z" fill="white"/>
<path d="M16.5005 4.9375L16.8755 4.28798L16.8755 4.28798L16.5005 4.9375ZM16.5005 19.0621L16.1255 18.4126L16.5005 19.0621ZM7.50047 19.0621L7.12547 19.7117H7.12547L7.50047 19.0621ZM7.50048 4.9375L7.87548 5.58702L7.50048 4.9375ZM8.92342 3.01508L8.19272 2.84601L8.92342 3.01508ZM5.31231 18.7402L5.14014 18.0102L5.31231 18.7402ZM4.40343 18.503L4.97297 18.015L4.40343 18.503ZM9.5397 21.695L9.72368 20.9679L9.5397 21.695ZM8.92347 20.9848L9.65418 20.8158L8.92347 20.9848ZM15.0775 20.9848L14.3468 20.8158L15.0775 20.9848ZM14.4613 21.695L14.6453 22.422L14.4613 21.695ZM19.5975 18.503L19.0279 18.015L19.5975 18.503ZM21.4441 8.70289L22.1522 8.45569L21.4441 8.70289ZM21.094 9.68352L20.6171 9.10469L21.094 9.68352ZM18.6884 5.2595L18.5163 4.52952L18.6884 5.2595ZM21.094 14.3165L20.6171 14.8953L21.094 14.3165ZM21.4441 15.2971L20.736 15.0499L21.4441 15.2971ZM15.0776 3.01511L14.3469 3.18418L15.0776 3.01511ZM14.3469 3.18418C14.5727 4.16005 15.1883 5.04592 16.1255 5.58702L16.8755 4.28798C16.3132 3.96329 15.9443 3.43381 15.8083 2.84603L14.3469 3.18418ZM16.1255 5.58702C16.9865 6.08408 17.9643 6.2008 18.8605 5.98949L18.5163 4.52952C17.9772 4.65663 17.3926 4.5865 16.8755 4.28798L16.1255 5.58702ZM22.1522 8.45569C21.7067 7.17937 21.0276 6.01337 20.1667 5.00871L19.0277 5.98471C19.7691 6.85004 20.3532 7.85328 20.736 8.95008L22.1522 8.45569ZM20.7504 12C20.7504 11.3006 21.0686 10.6762 21.5709 10.2624L20.6171 9.10469C19.7838 9.79128 19.2504 10.8337 19.2504 12H20.7504ZM21.5709 13.7376C21.0686 13.3238 20.7504 12.6994 20.7504 12H19.2504C19.2504 13.1663 19.7838 14.2087 20.6171 14.8953L21.5709 13.7376ZM20.167 18.991C21.0277 17.9864 21.7067 16.8205 22.1522 15.5443L20.736 15.0499C20.3532 16.1466 19.7693 17.1497 19.0279 18.015L20.167 18.991ZM16.8755 19.7117C17.3926 19.4131 17.9772 19.343 18.5164 19.4702L18.8608 18.0102C17.9644 17.7988 16.9865 17.9155 16.1255 18.4126L16.8755 19.7117ZM15.8082 21.1538C15.9442 20.566 16.3131 20.0364 16.8755 19.7117L16.1255 18.4126C15.1882 18.9538 14.5725 19.8398 14.3468 20.8158L15.8082 21.1538ZM12.0004 22.75C12.9121 22.75 13.7984 22.6363 14.6453 22.422L14.2773 20.9679C13.5497 21.152 12.7871 21.25 12.0004 21.25V22.75ZM9.35572 22.4221C10.2026 22.6363 11.0888 22.75 12.0004 22.75V21.25C11.2139 21.25 10.4512 21.152 9.72368 20.9679L9.35572 22.4221ZM7.12547 19.7117C7.68792 20.0364 8.0568 20.566 8.19276 21.1538L9.65418 20.8158C9.42845 19.8398 8.81281 18.9538 7.87547 18.4126L7.12547 19.7117ZM5.48449 19.4702C6.0237 19.343 6.60836 19.4131 7.12547 19.7117L7.87547 18.4126C7.01444 17.9155 6.03649 17.7988 5.14014 18.0102L5.48449 19.4702ZM1.84865 15.5443C2.29417 16.8205 2.97316 17.9864 3.83389 18.991L4.97297 18.015C4.23161 17.1498 3.64769 16.1466 3.26483 15.0499L1.84865 15.5443ZM3.25047 12C3.25047 12.6994 2.93228 13.3238 2.42996 13.7376L3.38379 14.8953C4.21711 14.2087 4.75047 13.1663 4.75047 12H3.25047ZM2.42996 10.2623C2.93228 10.6762 3.25047 11.3006 3.25047 12H4.75047C4.75047 10.8337 4.21711 9.79126 3.38379 9.10468L2.42996 10.2623ZM3.83418 5.00867C2.97331 6.01334 2.29422 7.17934 1.84865 8.45567L3.26483 8.95007C3.64773 7.85326 4.23174 6.85001 4.97322 5.98468L3.83418 5.00867ZM7.12548 4.28798C6.6084 4.58651 6.0238 4.65664 5.48463 4.5295L5.14036 5.98946C6.03666 6.20081 7.01451 6.0841 7.87548 5.58702L7.12548 4.28798ZM8.19272 2.84601C8.05672 3.43379 7.68786 3.96329 7.12548 4.28798L7.87548 5.58702C8.8127 5.04591 9.42831 4.16003 9.65411 3.18415L8.19272 2.84601ZM12.0004 1.25C11.0887 1.25 10.2025 1.36366 9.35564 1.57796L9.72361 3.03213C10.4512 2.84802 11.2138 2.75 12.0004 2.75V1.25ZM14.6454 1.578C13.7985 1.36368 12.9122 1.25 12.0004 1.25V2.75C12.7871 2.75 13.5498 2.84803 14.2774 3.03217L14.6454 1.578ZM9.65411 3.18415C9.66972 3.11668 9.69617 3.06909 9.71669 3.04413C9.73432 3.02269 9.73746 3.02862 9.72361 3.03213L9.35564 1.57796C8.66444 1.75286 8.30754 2.3498 8.19272 2.84601L9.65411 3.18415ZM3.38379 9.10468C3.32291 9.05451 3.28751 9.00024 3.27332 8.96394C3.26138 8.93341 3.27017 8.93478 3.26483 8.95007L1.84865 8.45567C1.58263 9.21766 1.99479 9.9038 2.42996 10.2623L3.38379 9.10468ZM5.14014 18.0102C5.07291 18.0261 5.01864 18.0235 4.98717 18.0162C4.96012 18.0099 4.96384 18.0044 4.97297 18.015L3.83389 18.991C4.29695 19.5314 4.98892 19.5871 5.48449 19.4702L5.14014 18.0102ZM9.72368 20.9679C9.73753 20.9714 9.73439 20.9773 9.71676 20.9559C9.69624 20.9309 9.66979 20.8833 9.65418 20.8158L8.19276 21.1538C8.30754 21.6501 8.66445 22.2471 9.35572 22.4221L9.72368 20.9679ZM14.3468 20.8158C14.3312 20.8833 14.3047 20.9309 14.2842 20.9559C14.2666 20.9773 14.2634 20.9714 14.2773 20.9679L14.6453 22.422C15.3365 22.2471 15.6934 21.6501 15.8082 21.1538L14.3468 20.8158ZM19.0279 18.015C19.0371 18.0043 19.0408 18.0098 19.0137 18.0161C18.9823 18.0235 18.928 18.0261 18.8608 18.0102L18.5164 19.4702C19.012 19.587 19.704 19.5314 20.167 18.991L19.0279 18.015ZM20.736 8.95008C20.7307 8.93479 20.7395 8.93343 20.7276 8.96395C20.7134 9.00025 20.678 9.05452 20.6171 9.10469L21.5709 10.2624C22.0061 9.90381 22.4182 9.21767 22.1522 8.45569L20.736 8.95008ZM3.26483 15.0499C3.27017 15.0652 3.26138 15.0666 3.27332 15.0361C3.28751 14.9998 3.32291 14.9455 3.38379 14.8953L2.42996 13.7376C1.99479 14.0962 1.58263 14.7823 1.84865 15.5443L3.26483 15.0499ZM18.8605 5.98949C18.9278 5.97364 18.982 5.97624 19.0135 5.98357C19.0405 5.98987 19.0368 5.99537 19.0277 5.98471L20.1667 5.00871C19.7037 4.46835 19.0118 4.41269 18.5163 4.52952L18.8605 5.98949ZM4.97322 5.98468C4.96409 5.99534 4.96037 5.98984 4.98742 5.98354C5.01888 5.97621 5.07314 5.97361 5.14036 5.98946L5.48463 4.5295C4.9891 4.41265 4.29721 4.4683 3.83418 5.00867L4.97322 5.98468ZM20.6171 14.8953C20.678 14.9455 20.7134 14.9997 20.7276 15.036C20.7395 15.0666 20.7307 15.0652 20.736 15.0499L22.1522 15.5443C22.4182 14.7823 22.0061 14.0962 21.5709 13.7376L20.6171 14.8953ZM15.8083 2.84603C15.6935 2.34983 15.3366 1.75292 14.6454 1.578L14.2774 3.03217C14.2636 3.02866 14.2667 3.02273 14.2843 3.04417C14.3049 3.06913 14.3313 3.11672 14.3469 3.18418L15.8083 2.84603Z" fill="white"/>
<circle r="3" transform="matrix(-1 0 0 1 12 12)" fill="#56A4FF" stroke="#56A4FF" stroke-width="1.5"/>
</svg>
