<svg width="22" height="22" viewBox="0 0 22 22" fill="none" xmlns="http://www.w3.org/2000/svg">
<circle r="3" transform="matrix(-1 0 0 1 11 11)" stroke="white" stroke-width="1.5"/>
<path d="M15.5005 3.9375L15.8755 3.28798L15.8755 3.28798L15.5005 3.9375ZM15.5005 18.0621L15.1255 17.4126L15.5005 18.0621ZM6.50047 18.0621L6.12547 18.7117H6.12547L6.50047 18.0621ZM6.50048 3.9375L6.87548 4.58702L6.50048 3.9375ZM7.92342 2.01508L7.19272 1.84601L7.92342 2.01508ZM4.31231 17.7402L4.14014 17.0102L4.31231 17.7402ZM3.40343 17.503L3.97297 17.015L3.40343 17.503ZM8.5397 20.695L8.72368 19.9679L8.5397 20.695ZM7.92347 19.9848L8.65418 19.8158L7.92347 19.9848ZM14.0775 19.9848L13.3468 19.8158L14.0775 19.9848ZM13.4613 20.695L13.6453 21.422L13.4613 20.695ZM18.5975 17.503L18.0279 17.015L18.5975 17.503ZM20.4441 7.70289L21.1522 7.45569L20.4441 7.70289ZM20.094 8.68352L19.6171 8.10469L20.094 8.68352ZM17.6884 4.2595L17.5163 3.52952L17.6884 4.2595ZM20.094 13.3165L19.6171 13.8953L20.094 13.3165ZM20.4441 14.2971L19.736 14.0499L20.4441 14.2971ZM14.0776 2.01511L13.3469 2.18418L14.0776 2.01511ZM13.3469 2.18418C13.5727 3.16005 14.1883 4.04592 15.1255 4.58702L15.8755 3.28798C15.3132 2.96329 14.9443 2.43381 14.8083 1.84603L13.3469 2.18418ZM15.1255 4.58702C15.9865 5.08408 16.9643 5.2008 17.8605 4.98949L17.5163 3.52952C16.9772 3.65663 16.3926 3.5865 15.8755 3.28798L15.1255 4.58702ZM21.1522 7.45569C20.7067 6.17937 20.0276 5.01337 19.1667 4.00871L18.0277 4.98471C18.7691 5.85004 19.3532 6.85328 19.736 7.95008L21.1522 7.45569ZM19.7504 11C19.7504 10.3006 20.0686 9.67623 20.5709 9.26236L19.6171 8.10469C18.7838 8.79128 18.2504 9.83367 18.2504 11H19.7504ZM20.5709 12.7376C20.0686 12.3238 19.7504 11.6994 19.7504 11H18.2504C18.2504 12.1663 18.7838 13.2087 19.6171 13.8953L20.5709 12.7376ZM19.167 17.991C20.0277 16.9864 20.7067 15.8205 21.1522 14.5443L19.736 14.0499C19.3532 15.1466 18.7693 16.1497 18.0279 17.015L19.167 17.991ZM15.8755 18.7117C16.3926 18.4131 16.9772 18.343 17.5164 18.4702L17.8608 17.0102C16.9644 16.7988 15.9865 16.9155 15.1255 17.4126L15.8755 18.7117ZM14.8082 20.1538C14.9442 19.566 15.3131 19.0364 15.8755 18.7117L15.1255 17.4126C14.1882 17.9538 13.5725 18.8398 13.3468 19.8158L14.8082 20.1538ZM11.0004 21.75C11.9121 21.75 12.7984 21.6363 13.6453 21.422L13.2773 19.9679C12.5497 20.152 11.7871 20.25 11.0004 20.25V21.75ZM8.35572 21.4221C9.20259 21.6363 10.0888 21.75 11.0004 21.75V20.25C10.2139 20.25 9.45124 20.152 8.72368 19.9679L8.35572 21.4221ZM6.12547 18.7117C6.68792 19.0364 7.0568 19.566 7.19276 20.1538L8.65418 19.8158C8.42845 18.8398 7.81281 17.9538 6.87547 17.4126L6.12547 18.7117ZM4.48449 18.4702C5.0237 18.343 5.60836 18.4131 6.12547 18.7117L6.87547 17.4126C6.01444 16.9155 5.03649 16.7988 4.14014 17.0102L4.48449 18.4702ZM0.848647 14.5443C1.29417 15.8205 1.97316 16.9864 2.83389 17.991L3.97297 17.015C3.23161 16.1498 2.64769 15.1466 2.26483 14.0499L0.848647 14.5443ZM2.25047 11C2.25047 11.6994 1.93228 12.3238 1.42996 12.7376L2.38379 13.8953C3.21711 13.2087 3.75047 12.1663 3.75047 11H2.25047ZM1.42996 9.26235C1.93228 9.67622 2.25047 10.3006 2.25047 11H3.75047C3.75047 9.83366 3.21711 8.79126 2.38379 8.10468L1.42996 9.26235ZM2.83418 4.00867C1.97331 5.01334 1.29422 6.17934 0.848648 7.45567L2.26483 7.95007C2.64773 6.85326 3.23174 5.85001 3.97322 4.98468L2.83418 4.00867ZM6.12548 3.28798C5.6084 3.58651 5.0238 3.65664 4.48463 3.5295L4.14036 4.98946C5.03666 5.20081 6.01451 5.0841 6.87548 4.58702L6.12548 3.28798ZM7.19272 1.84601C7.05672 2.43379 6.68786 2.96329 6.12548 3.28798L6.87548 4.58702C7.8127 4.04591 8.42831 3.16003 8.65411 2.18415L7.19272 1.84601ZM11.0004 0.25C10.0887 0.25 9.20253 0.36366 8.35564 0.577959L8.72361 2.03213C9.45119 1.84802 10.2138 1.75 11.0004 1.75V0.25ZM13.6454 0.578005C12.7985 0.363676 11.9122 0.25 11.0004 0.25V1.75C11.7871 1.75 12.5498 1.84803 13.2774 2.03217L13.6454 0.578005ZM8.65411 2.18415C8.66972 2.11668 8.69617 2.06909 8.71669 2.04413C8.73432 2.02269 8.73746 2.02862 8.72361 2.03213L8.35564 0.577959C7.66444 0.752863 7.30754 1.3498 7.19272 1.84601L8.65411 2.18415ZM2.38379 8.10468C2.32291 8.05451 2.28751 8.00024 2.27332 7.96394C2.26138 7.93341 2.27017 7.93478 2.26483 7.95007L0.848648 7.45567C0.582635 8.21766 0.994789 8.9038 1.42996 9.26235L2.38379 8.10468ZM4.14014 17.0102C4.07291 17.0261 4.01864 17.0235 3.98717 17.0162C3.96012 17.0099 3.96384 17.0044 3.97297 17.015L2.83389 17.991C3.29695 18.5314 3.98892 18.5871 4.48449 18.4702L4.14014 17.0102ZM8.72368 19.9679C8.73753 19.9714 8.73439 19.9773 8.71676 19.9559C8.69624 19.9309 8.66979 19.8833 8.65418 19.8158L7.19276 20.1538C7.30754 20.6501 7.66445 21.2471 8.35572 21.4221L8.72368 19.9679ZM13.3468 19.8158C13.3312 19.8833 13.3047 19.9309 13.2842 19.9559C13.2666 19.9773 13.2634 19.9714 13.2773 19.9679L13.6453 21.422C14.3365 21.2471 14.6934 20.6501 14.8082 20.1538L13.3468 19.8158ZM18.0279 17.015C18.0371 17.0043 18.0408 17.0098 18.0137 17.0161C17.9823 17.0235 17.928 17.0261 17.8608 17.0102L17.5164 18.4702C18.012 18.587 18.704 18.5314 19.167 17.991L18.0279 17.015ZM19.736 7.95008C19.7307 7.93479 19.7395 7.93343 19.7276 7.96395C19.7134 8.00025 19.678 8.05452 19.6171 8.10469L20.5709 9.26236C21.0061 8.90381 21.4182 8.21767 21.1522 7.45569L19.736 7.95008ZM2.26483 14.0499C2.27017 14.0652 2.26138 14.0666 2.27332 14.0361C2.28751 13.9998 2.32291 13.9455 2.38379 13.8953L1.42996 12.7376C0.994788 13.0962 0.582634 13.7823 0.848647 14.5443L2.26483 14.0499ZM17.8605 4.98949C17.9278 4.97364 17.982 4.97624 18.0135 4.98357C18.0405 4.98987 18.0368 4.99537 18.0277 4.98471L19.1667 4.00871C18.7037 3.46835 18.0118 3.41269 17.5163 3.52952L17.8605 4.98949ZM3.97322 4.98468C3.96409 4.99534 3.96037 4.98984 3.98742 4.98354C4.01888 4.97621 4.07314 4.97361 4.14036 4.98946L4.48463 3.5295C3.9891 3.41265 3.29721 3.4683 2.83418 4.00867L3.97322 4.98468ZM19.6171 13.8953C19.678 13.9455 19.7134 13.9997 19.7276 14.036C19.7395 14.0666 19.7307 14.0652 19.736 14.0499L21.1522 14.5443C21.4182 13.7823 21.0061 13.0962 20.5709 12.7376L19.6171 13.8953ZM14.8083 1.84603C14.6935 1.34983 14.3366 0.752915 13.6454 0.578005L13.2774 2.03217C13.2636 2.02866 13.2667 2.02273 13.2843 2.04417C13.3049 2.06913 13.3313 2.11672 13.3469 2.18418L14.8083 1.84603Z" fill="white"/>
</svg>
