<svg width="33" height="40" viewBox="0 0 33 40" fill="none" xmlns="http://www.w3.org/2000/svg">
<path d="M33 29.2067C32.3841 31.2099 31.4128 33.2131 30.0861 35.2163C28.0488 38.3574 26.0194 39.9279 23.9978 39.9279C23.224 39.9279 22.1184 39.6715 20.6813 39.1587C19.323 38.6458 18.1307 38.3894 17.1041 38.3894C16.1407 38.3894 15.0194 38.6538 13.7401 39.1827C12.4609 39.7276 11.4185 40 10.6131 40C8.21249 40 5.83561 37.9247 3.48241 33.774C1.1608 29.5913 0 25.5609 0 21.6827C0 18.0288 0.892319 15.0321 2.67696 12.6923C4.46159 10.3846 6.70424 9.23077 9.40488 9.23077C10.542 9.23077 11.9397 9.47115 13.598 9.95192C15.2405 10.4327 16.3302 10.6731 16.8672 10.6731C17.5779 10.6731 18.7071 10.4006 20.2548 9.85577C21.8658 9.3109 23.2319 9.03846 24.3532 9.03846C26.2326 9.03846 27.9146 9.55929 29.3991 10.601C30.2204 11.1779 31.0416 11.9792 31.8629 13.0048C30.6152 14.0785 29.715 15.024 29.1622 15.8413C28.1357 17.3478 27.6224 19.0064 27.6224 20.8173C27.6224 22.8045 28.1673 24.5913 29.257 26.1779C30.3467 27.7644 31.5944 28.774 33 29.2067ZM24.0926 1.00962C24.0926 1.98718 23.8636 3.07692 23.4056 4.27885C22.9318 5.48077 22.1974 6.58654 21.2024 7.59615C20.3496 8.46154 19.4968 9.03846 18.6439 9.32692C18.0596 9.50321 17.2383 9.63942 16.1802 9.73558C16.2276 7.34776 16.8435 5.28846 18.028 3.55769C19.1967 1.84295 21.1709 0.657051 23.9505 0C23.9663 0.0480769 23.986 0.136218 24.0097 0.264423C24.0334 0.392628 24.0531 0.480769 24.0689 0.528846C24.0689 0.592949 24.0729 0.673077 24.0808 0.769231C24.0887 0.865385 24.0926 0.945513 24.0926 1.00962Z" fill="#978284"/>
</svg>
