<svg width="20" height="21" viewBox="0 0 20 21" fill="none" xmlns="http://www.w3.org/2000/svg">
<path d="M15.7845 9.69679V7.08775C15.7845 5.47318 15.1432 3.92474 14.0015 2.78306C12.8598 1.64139 11.3114 1 9.69679 1C8.08222 1 6.53377 1.64139 5.3921 2.78306C4.25042 3.92474 3.60904 5.47318 3.60904 7.08775V9.69679C3.60904 12.5667 1 13.2625 1 14.9149C1 16.3933 4.39175 17.5239 9.69679 17.5239C15.0018 17.5239 18.3936 16.3933 18.3936 14.9149C18.3936 13.2625 15.7845 12.5667 15.7845 9.69679Z" stroke="white" stroke-width="1.5" stroke-miterlimit="10" stroke-linecap="round" stroke-linejoin="round"/>
<path d="M9.6968 19.2632C8.81755 19.2632 7.99136 19.2337 7.21387 19.1763C7.37962 19.705 7.70984 20.167 8.15644 20.4951C8.60303 20.8231 9.14268 21 9.6968 21C10.2509 21 10.7906 20.8231 11.2372 20.4951C11.6838 20.167 12.014 19.705 12.1797 19.1763C11.4022 19.2337 10.576 19.2632 9.6968 19.2632Z" fill="white"/>
</svg>
