<svg width="16" height="15" viewBox="0 0 16 15" fill="none" xmlns="http://www.w3.org/2000/svg">
<g clip-path="url(#clip0_168_1294)">
<path d="M7.56452 8.75C8.60278 8.75 9.44447 7.91053 9.44447 6.875C9.44447 5.83947 8.60278 5 7.56452 5C6.52625 5 5.68457 5.83947 5.68457 6.875C5.68457 7.91053 6.52625 8.75 7.56452 8.75Z" stroke="#56A4FF" stroke-width="1.5" stroke-linecap="round" stroke-linejoin="round"/>
<path d="M11.1099 10.4106L8.45104 13.0624C8.21603 13.2966 7.89744 13.4281 7.56527 13.4281C7.23309 13.4281 6.9145 13.2966 6.6795 13.0624L4.02 10.4106C3.31892 9.71129 2.84148 8.82038 2.64807 7.85048C2.45465 6.88058 2.55395 5.87526 2.93339 4.96165C3.31284 4.04803 3.95539 3.26715 4.7798 2.71776C5.60421 2.16836 6.57345 1.87512 7.56495 1.87512C8.55646 1.87512 9.5257 2.16836 10.3501 2.71776C11.1745 3.26715 11.8171 4.04803 12.1965 4.96165C12.576 5.87526 12.6753 6.88058 12.4818 7.85048C12.2884 8.82038 11.811 9.71129 11.1099 10.4106V10.4106Z" stroke="#56A4FF" stroke-width="1.5" stroke-linecap="round" stroke-linejoin="round"/>
</g>
<defs>
<clipPath id="clip0_168_1294">
<rect width="15.0396" height="15" fill="white" transform="translate(0.0449219)"/>
</clipPath>
</defs>
</svg>
