<svg width="15" height="4" viewBox="0 0 15 4" fill="none" xmlns="http://www.w3.org/2000/svg">
<path d="M7.7536 0C6.79974 0 6.0193 0.9 6.0193 2C6.0193 3.1 6.79974 4 7.7536 4C8.70747 4 9.4879 3.1 9.4879 2C9.4879 0.9 8.70747 0 7.7536 0ZM12.9565 0C12.0026 0 11.2222 0.9 11.2222 2C11.2222 3.1 12.0026 4 12.9565 4C13.9104 4 14.6908 3.1 14.6908 2C14.6908 0.9 13.9104 0 12.9565 0ZM2.55071 0C1.59684 0 0.816406 0.9 0.816406 2C0.816406 3.1 1.59684 4 2.55071 4C3.50457 4 4.28501 3.1 4.28501 2C4.28501 0.9 3.50457 0 2.55071 0Z" fill="#56A4FF"/>
</svg>
