<svg width="27" height="24" viewBox="0 0 27 24" fill="none" xmlns="http://www.w3.org/2000/svg">
<path d="M17.819 12.9375C17.819 14.1807 17.3907 15.373 16.6284 16.2521C15.8661 17.1311 14.8323 17.625 13.7542 17.625C12.6762 17.625 11.6423 17.1311 10.88 16.2521C10.1177 15.373 9.68945 14.1807 9.68945 12.9375C9.68945 11.6943 10.1177 10.502 10.88 9.62294C11.6423 8.74386 12.6762 8.25 13.7542 8.25C14.8323 8.25 15.8661 8.74386 16.6284 9.62294C17.3907 10.502 17.819 11.6943 17.819 12.9375Z" fill="#56A4FF"/>
<path d="M3.99791 4.5C3.13547 4.5 2.30836 4.89509 1.69853 5.59835C1.08869 6.30161 0.746094 7.25544 0.746094 8.25L0.746094 19.5C0.746094 20.4946 1.08869 21.4484 1.69853 22.1516C2.30836 22.8549 3.13547 23.25 3.99791 23.25H23.5088C24.3712 23.25 25.1983 22.8549 25.8082 22.1516C26.418 21.4484 26.7606 20.4946 26.7606 19.5V8.25C26.7606 7.25544 26.418 6.30161 25.8082 5.59835C25.1983 4.89509 24.3712 4.5 23.5088 4.5H21.6032C20.7408 4.49979 19.9139 4.10456 19.3042 3.40125L17.9579 1.84875C17.3482 1.14544 16.5213 0.750212 15.6589 0.75H11.8478C10.9854 0.750212 10.1584 1.14544 9.54875 1.84875L8.2025 3.40125C7.59281 4.10456 6.76583 4.49979 5.90347 4.5H3.99791ZM4.81086 8.25C4.59525 8.25 4.38847 8.15123 4.23601 7.97541C4.08356 7.7996 3.99791 7.56114 3.99791 7.3125C3.99791 7.06386 4.08356 6.8254 4.23601 6.64959C4.38847 6.47377 4.59525 6.375 4.81086 6.375C5.02647 6.375 5.23324 6.47377 5.3857 6.64959C5.53816 6.8254 5.62381 7.06386 5.62381 7.3125C5.62381 7.56114 5.53816 7.7996 5.3857 7.97541C5.23324 8.15123 5.02647 8.25 4.81086 8.25ZM19.444 12.9375C19.444 14.678 18.8445 16.3472 17.7773 17.5779C16.71 18.8086 15.2626 19.5 13.7533 19.5C12.2441 19.5 10.7966 18.8086 9.72943 17.5779C8.66222 16.3472 8.06267 14.678 8.06267 12.9375C8.06267 11.197 8.66222 9.52782 9.72943 8.29711C10.7966 7.0664 12.2441 6.375 13.7533 6.375C15.2626 6.375 16.71 7.0664 17.7773 8.29711C18.8445 9.52782 19.444 11.197 19.444 12.9375Z" fill="#56A4FF"/>
</svg>
