<svg width="96" height="96" viewBox="0 0 96 96" fill="none" xmlns="http://www.w3.org/2000/svg">
<circle cx="48" cy="48" r="48" fill="#126CFF" fill-opacity="0.09"/>
<path d="M69.7032 62.0615H29.4673C28.6247 62.0615 27.9384 61.3729 27.9384 60.5267L27.939 39.3369C27.939 38.5253 27.2814 37.8677 26.4697 37.8677C25.6581 37.8677 25.0005 38.5253 25.0005 39.3369V60.5267C25.0005 62.9932 27.0043 65.0001 29.4674 65.0001H69.7033C70.5149 65.0001 71.1725 64.3424 71.1725 63.5308C71.1725 62.7198 70.5149 62.0622 69.7033 62.0622L69.7032 62.0615Z" fill="#56A4FF"/>
<path d="M66.7052 31.0001H26.4692C25.6576 31.0001 25 31.6577 25 32.4693C25 33.2809 25.6576 33.9385 26.4692 33.9385H66.7052C67.5484 33.9385 68.2341 34.6272 68.2341 35.4733V56.6631C68.2341 57.4748 68.8917 58.1324 69.7033 58.1324C70.515 58.1324 71.1726 57.4748 71.1726 56.6631V35.4733C71.1726 33.0069 69.1687 31 66.7051 31L66.7052 31.0001Z" fill="#56A4FF"/>
<path d="M47.6262 55.3455C47.9881 55.3455 48.3506 55.2126 48.6335 54.9456L64.0637 40.4049C64.6546 39.8486 64.6821 38.9192 64.1252 38.3283C63.5689 37.7386 62.639 37.7093 62.0486 38.2668L47.6579 51.8278L34.1566 38.2978C33.5834 37.7234 32.6529 37.7234 32.079 38.2955C31.5046 38.8682 31.5034 39.7993 32.0767 40.3731L46.5864 54.9138C46.8733 55.2007 47.2498 55.3454 47.6264 55.3454L47.6262 55.3455Z" fill="#56A4FF"/>
</svg>
