<svg width="22" height="25" viewBox="0 0 22 25" fill="none" xmlns="http://www.w3.org/2000/svg">
<path d="M20.2651 0H4.81904C4.49563 0 4.18546 0.148158 3.95677 0.411881C3.72808 0.675604 3.59961 1.03329 3.59961 1.40625V19.2188C3.59961 19.5917 3.72808 19.9494 3.95677 20.2131C4.18546 20.4768 4.49563 20.625 4.81904 20.625H20.2651C20.5886 20.625 20.8987 20.4768 21.1274 20.2131C21.3561 19.9494 21.4846 19.5917 21.4846 19.2188V1.40625C21.4846 1.03329 21.3561 0.675604 21.1274 0.411881C20.8987 0.148158 20.5886 0 20.2651 0ZM19.8587 18.75H5.22552V1.875H19.8587V18.75Z" fill="#56A4FF"/>
<path d="M1.97356 22.5V3.75H0.347656V22.9688C0.347656 23.3417 0.476131 23.6994 0.704819 23.9631C0.933506 24.2268 1.24367 24.375 1.56709 24.375H18.2326V22.5H1.97356Z" fill="#56A4FF"/>
</svg>
