<svg width="39" height="40" viewBox="0 0 39 40" fill="none" xmlns="http://www.w3.org/2000/svg">
<path fill-rule="evenodd" clip-rule="evenodd" d="M19.5 0C8.7295 0 0 8.955 0 20C0 31.045 8.7295 40 19.5 40C30.2689 40 39 31.045 39 20C39 8.955 30.2689 0 19.5 0ZM19.7275 31.6967C13.442 31.6967 8.3525 26.4633 8.3525 20C8.3525 13.5367 13.442 8.30333 19.7275 8.30333C22.7987 8.30333 25.3663 9.465 27.3358 11.3517L24.128 14.6483V14.6417C22.9336 13.4717 21.4191 12.8717 19.7275 12.8717C15.9738 12.8717 12.9236 16.1317 12.9236 19.9933C12.9236 23.8517 15.9738 27.1217 19.7275 27.1217C23.1335 27.1217 25.4508 25.1183 25.9285 22.3683H19.7275V17.8067H30.4281C30.5711 18.59 30.6475 19.4067 30.6475 20.2633C30.6475 26.9467 26.2974 31.6967 19.7275 31.6967Z" fill="#978284"/>
</svg>
