<svg width="40" height="41" viewBox="0 0 40 41" fill="none" xmlns="http://www.w3.org/2000/svg">
<rect y="0.5" width="40" height="40" rx="20" fill="#FAFAFA"/>
<path d="M21.5 8.5C14.0442 8.5 8 14.5442 8 22C8 29.4558 14.0442 35.5 21.5 35.5C28.9558 35.5 35 29.4558 35 22C35 14.5442 28.9558 8.5 21.5 8.5ZM21.5 33.8125C14.9761 33.8125 9.6875 28.5239 9.6875 22C9.6875 15.4761 14.9761 10.1875 21.5 10.1875C28.0239 10.1875 33.3125 15.4761 33.3125 22C33.3125 28.5239 28.0239 33.8125 21.5 33.8125Z" fill="#999999"/>
<path d="M21.5 28.187C18.7041 28.187 16.4375 25.9204 16.4375 23.1245H14.75C14.75 26.8524 17.7721 29.8745 21.5 29.8745C25.2279 29.8745 28.25 26.8524 28.25 23.1245H26.5625C26.5625 25.9204 24.2959 28.187 21.5 28.187Z" fill="#999999"/>
<path d="M17.5635 19.4688C18.4955 19.4688 19.251 18.7132 19.251 17.7812C19.251 16.8493 18.4955 16.0938 17.5635 16.0938C16.6315 16.0938 15.876 16.8493 15.876 17.7812C15.876 18.7132 16.6315 19.4688 17.5635 19.4688Z" fill="#999999"/>
<path d="M26.001 19.4688C26.933 19.4688 27.6885 18.7132 27.6885 17.7812C27.6885 16.8493 26.933 16.0938 26.001 16.0938C25.069 16.0938 24.3135 16.8493 24.3135 17.7812C24.3135 18.7132 25.069 19.4688 26.001 19.4688Z" fill="#999999"/>
</svg>
