<svg width="20" height="19" viewBox="0 0 20 19" fill="none" xmlns="http://www.w3.org/2000/svg">
<path d="M17.4096 9.67464L7.85996 16.082C6.02477 17.3134 3.54103 16.8243 2.3097 14.9891C1.07837 13.1539 1.56746 10.6701 3.40266 9.4388L13.7827 2.47426C14.3333 2.10484 15.0081 1.96927 15.6586 2.09737C16.3092 2.22548 16.8822 2.60677 17.2516 3.15736C17.621 3.70795 17.7566 4.38274 17.6285 5.03329C17.5004 5.68384 17.1191 6.25685 16.5685 6.62627L7.84928 12.4765C7.39256 12.7829 6.76815 12.66 6.46171 12.2033C6.15527 11.7465 6.27823 11.1221 6.73495 10.8157L14.6238 5.52263L13.788 4.27703L5.89921 9.57008C5.34861 9.9395 4.96733 10.5125 4.83922 11.1631C4.71112 11.8136 4.84669 12.4884 5.21611 13.039C5.58553 13.5896 6.15854 13.9709 6.80909 14.099C7.45964 14.2271 8.13443 14.0915 8.68502 13.7221L17.4043 7.87188C19.2394 6.64055 19.7285 4.1568 18.4972 2.32161C17.2659 0.486421 14.7821 -0.00267736 12.9469 1.22865L2.56691 8.1932C0.042485 9.88697 -0.629683 13.3004 1.06409 15.8248C2.75787 18.3492 6.17128 19.0214 8.69571 17.3276L18.2453 10.9202L17.4096 9.67464Z" fill="#818285"/>
</svg>
