<svg width="47" height="34" viewBox="0 0 47 34" fill="none" xmlns="http://www.w3.org/2000/svg">
<path d="M44.7032 31.0615H4.46732C3.62466 31.0615 2.93838 30.3729 2.93838 29.5267L2.93897 8.33692C2.93897 7.52529 2.28136 6.86768 1.46973 6.86768C0.658099 6.86768 0.000488281 7.52529 0.000488281 8.33692V29.5267C0.000488281 31.9932 2.00434 34.0001 4.46736 34.0001H44.7033C45.5149 34.0001 46.1725 33.3424 46.1725 32.5308C46.1725 31.7198 45.5149 31.0622 44.7033 31.0622L44.7032 31.0615Z" fill="#56A4FF"/>
<path d="M41.7052 6.17611e-05H1.46924C0.657611 6.17611e-05 0 0.657673 0 1.4693C0 2.28093 0.657611 2.93854 1.46924 2.93854H41.7052C42.5484 2.93854 43.2341 3.6272 43.2341 4.47332V25.6631C43.2341 26.4748 43.8917 27.1324 44.7033 27.1324C45.515 27.1324 46.1726 26.4748 46.1726 25.6631V4.47332C46.1726 2.00685 44.1687 0 41.7051 0L41.7052 6.17611e-05Z" fill="#56A4FF"/>
<path d="M22.6262 24.3455C22.9881 24.3455 23.3506 24.2126 23.6335 23.9456L39.0637 9.40486C39.6546 8.84856 39.6821 7.91922 39.1252 7.3283C38.5689 6.73862 37.639 6.70934 37.0486 7.26682L22.6579 20.8278L9.15664 7.29785C8.58335 6.72339 7.65289 6.72339 7.07904 7.2955C6.50458 7.86821 6.50341 8.79926 7.07669 9.37311L21.5864 23.9138C21.8733 24.2007 22.2498 24.3454 22.6264 24.3454L22.6262 24.3455Z" fill="#56A4FF"/>
</svg>
