<svg width="28" height="18" viewBox="0 0 28 18" fill="none" xmlns="http://www.w3.org/2000/svg">
<path d="M13.272 15.6947C13.336 15.7493 13.4053 15.804 13.4733 15.8573C12.1219 16.7545 10.5354 17.2323 8.91333 17.2307C7.83209 17.2316 6.76128 17.0193 5.76215 16.606C4.76301 16.1927 3.85515 15.5865 3.09047 14.8221C2.32579 14.0577 1.71931 13.15 1.3057 12.151C0.89209 11.152 0.679468 10.0813 0.679994 9.00001C0.679853 7.51084 1.08361 6.04951 1.84825 4.77165C2.6129 3.49378 3.70982 2.44722 5.02218 1.74343C6.33455 1.03963 7.81322 0.704949 9.30075 0.775021C10.7883 0.845094 12.2289 1.3173 13.4693 2.14135C13.4027 2.19868 13.336 2.25068 13.2853 2.30935C12.3242 3.13923 11.5531 4.16635 11.0244 5.32086C10.4957 6.47537 10.2218 7.7302 10.2213 9.00001C10.2213 11.5667 11.332 14.0067 13.272 15.6947ZM19.0867 0.768012C17.466 0.764861 15.8808 1.24282 14.532 2.14135C14.5973 2.19868 14.664 2.25068 14.7147 2.30935C16.664 3.99335 17.78 6.43468 17.78 9.00001C17.78 11.5653 16.6667 14.004 14.7293 15.6947C14.664 15.7493 14.5947 15.804 14.528 15.8573C15.8783 16.7548 17.464 17.2326 19.0853 17.2307C20.1751 17.2446 21.2568 17.0421 22.2677 16.6347C23.2785 16.2273 24.1984 15.6233 24.974 14.8576C25.7496 14.092 26.3655 13.1799 26.7858 12.1744C27.2062 11.1689 27.4227 10.0899 27.4228 9.00002C27.4228 7.91016 27.2065 6.83114 26.7863 5.82554C26.3661 4.81994 25.7505 3.90779 24.975 3.142C24.1995 2.37621 23.2797 1.77203 22.2689 1.36451C21.2581 0.956983 20.1764 0.754231 19.0867 0.768012ZM14 2.53335C13.0197 3.30196 12.2274 4.28374 11.6831 5.40419C11.1388 6.52465 10.8569 7.75435 10.8587 9.00001C10.8561 10.2464 11.1377 11.4769 11.682 12.5982C12.2263 13.7194 13.0191 14.7018 14 15.4707C14.9807 14.7014 15.7733 13.719 16.3178 12.5979C16.8623 11.4768 17.1444 10.2464 17.1427 9.00001C17.1445 7.75421 16.8624 6.52437 16.3179 5.40387C15.7733 4.28338 14.9806 3.30169 14 2.53335Z" fill="black"/>
</svg>
