<svg width="32" height="19" viewBox="0 0 32 19" fill="none" xmlns="http://www.w3.org/2000/svg">
<path d="M20.583 17.4167V1.58337L15.833 1.97921L11.083 1.58337V17.4167L15.833 17.0209L20.583 17.4167Z" fill="#FF5F00"/>
<path d="M12.1062 9.5C12.1062 6.46528 13.5753 3.77361 15.8333 2.03194C14.1738 0.765278 12.079 0 9.79381 0C4.38001 0 0 4.24861 0 9.5C0 14.7514 4.38001 19 9.79381 19C12.079 19 14.1738 18.2347 15.8333 16.9681C13.5753 15.2528 12.1062 12.5347 12.1062 9.5Z" fill="#EB001B"/>
<path d="M31.6663 9.5C31.6663 14.7514 27.2863 19 21.8725 19C19.5873 19 17.4925 18.2347 15.833 16.9681C18.1182 15.2264 19.5601 12.5347 19.5601 9.5C19.5601 6.46528 18.091 3.77361 15.833 2.03194C17.4925 0.765278 19.5873 0 21.8725 0C27.2863 0 31.6663 4.275 31.6663 9.5Z" fill="#F79E1B"/>
</svg>
