<svg width="24" height="21" viewBox="0 0 24 21" fill="none" xmlns="http://www.w3.org/2000/svg">
<path d="M23.25 0H0.75C0.546875 0 0.367188 0.078125 0.210938 0.234375C0.0703125 0.375 0 0.546875 0 0.75V15.75C0 15.9531 0.0703125 16.1328 0.210938 16.2891C0.367188 16.4297 0.546875 16.5 0.75 16.5H7.89844L11.4141 20.7422C11.4922 20.8203 11.5781 20.8828 11.6719 20.9297C11.7812 20.9766 11.8906 21 12 21C12.1094 21 12.2109 20.9766 12.3047 20.9297C12.4141 20.8828 12.5078 20.8203 12.5859 20.7422L16.1016 16.5H23.25C23.4531 16.5 23.625 16.4297 23.7656 16.2891C23.9219 16.1328 24 15.9531 24 15.75V0.75C24 0.546875 23.9219 0.375 23.7656 0.234375C23.625 0.078125 23.4531 0 23.25 0ZM22.5 15H15.75C15.6406 15 15.5312 15.0234 15.4219 15.0703C15.3281 15.1172 15.2422 15.1797 15.1641 15.2578L12 19.0781L8.83594 15.2812C8.75781 15.1875 8.66406 15.1172 8.55469 15.0703C8.46094 15.0234 8.35938 15 8.25 15H1.5V1.5H22.5V15ZM6 6.75H18C18.2031 6.75 18.375 6.67969 18.5156 6.53906C18.6719 6.38281 18.75 6.20312 18.75 6C18.75 5.79688 18.6719 5.625 18.5156 5.48438C18.375 5.32813 18.2031 5.25 18 5.25H6C5.79688 5.25 5.61719 5.32813 5.46094 5.48438C5.32031 5.625 5.25 5.79688 5.25 6C5.25 6.20312 5.32031 6.38281 5.46094 6.53906C5.61719 6.67969 5.79688 6.75 6 6.75ZM6 11.25H12.75C12.9531 11.25 13.125 11.1797 13.2656 11.0391C13.4219 10.8828 13.5 10.7031 13.5 10.5C13.5 10.2969 13.4219 10.125 13.2656 9.98438C13.125 9.82812 12.9531 9.75 12.75 9.75H6C5.79688 9.75 5.61719 9.82812 5.46094 9.98438C5.32031 10.125 5.25 10.2969 5.25 10.5C5.25 10.7031 5.32031 10.8828 5.46094 11.0391C5.61719 11.1797 5.79688 11.25 6 11.25Z" fill="black"/>
</svg>
