<svg width="24" height="24" viewBox="0 0 24 24" fill="none" xmlns="http://www.w3.org/2000/svg">
<path d="M17.7845 10.6968V8.08775C17.7845 6.47318 17.1432 4.92474 16.0015 3.78306C14.8598 2.64139 13.3114 2 11.6968 2C10.0822 2 8.53377 2.64139 7.3921 3.78306C6.25042 4.92474 5.60904 6.47318 5.60904 8.08775V10.6968C5.60904 13.5667 3 14.2625 3 15.9149C3 17.3933 6.39175 18.5239 11.6968 18.5239C17.0018 18.5239 20.3936 17.3933 20.3936 15.9149C20.3936 14.2625 17.7845 13.5667 17.7845 10.6968Z" stroke="black" stroke-width="1.5" stroke-miterlimit="10" stroke-linecap="round" stroke-linejoin="round"/>
<path d="M11.6968 20.2632C10.8176 20.2632 9.99136 20.2337 9.21387 20.1763C9.37962 20.705 9.70984 21.167 10.1564 21.4951C10.603 21.8231 11.1427 22 11.6968 22C12.2509 22 12.7906 21.8231 13.2372 21.4951C13.6838 21.167 14.014 20.705 14.1797 20.1763C13.4022 20.2337 12.576 20.2632 11.6968 20.2632Z" fill="black"/>
</svg>
