<svg width="20" height="19" viewBox="0 0 20 19" fill="none" xmlns="http://www.w3.org/2000/svg">
<path d="M18.3082 14.775C18.3082 15.075 18.2415 15.3833 18.0998 15.6833C17.9582 15.9833 17.7748 16.2666 17.5332 16.5333C17.1248 16.9833 16.6748 17.3083 16.1665 17.5166C15.6665 17.725 15.1248 17.8333 14.5415 17.8333C13.6915 17.8333 12.7832 17.6333 11.8248 17.225C10.8665 16.8166 9.90817 16.2666 8.95817 15.575C7.99984 14.875 7.0915 14.1 6.22484 13.2416C5.3665 12.375 4.5915 11.4666 3.89984 10.5166C3.2165 9.56663 2.6665 8.61663 2.2665 7.67496C1.8665 6.72496 1.6665 5.81663 1.6665 4.94996C1.6665 4.38329 1.7665 3.84163 1.9665 3.34163C2.1665 2.83329 2.48317 2.36663 2.92484 1.94996C3.45817 1.42496 4.0415 1.16663 4.65817 1.16663C4.8915 1.16663 5.12484 1.21663 5.33317 1.31663C5.54984 1.41663 5.7415 1.56663 5.8915 1.78329L7.82484 4.50829C7.97484 4.71663 8.08317 4.90829 8.15817 5.09163C8.23317 5.26663 8.27484 5.44163 8.27484 5.59996C8.27484 5.79996 8.2165 5.99996 8.09984 6.19163C7.9915 6.38329 7.83317 6.58329 7.63317 6.78329L6.99984 7.44163C6.90817 7.53329 6.8665 7.64163 6.8665 7.77496C6.8665 7.84163 6.87484 7.89996 6.8915 7.96663C6.9165 8.03329 6.9415 8.08329 6.95817 8.13329C7.10817 8.40829 7.3665 8.76663 7.73317 9.19996C8.10817 9.63329 8.50817 10.075 8.9415 10.5166C9.3915 10.9583 9.82484 11.3666 10.2665 11.7416C10.6998 12.1083 11.0582 12.3583 11.3415 12.5083C11.3832 12.525 11.4332 12.55 11.4915 12.575C11.5582 12.6 11.6248 12.6083 11.6998 12.6083C11.8415 12.6083 11.9498 12.5583 12.0415 12.4666L12.6748 11.8416C12.8832 11.6333 13.0832 11.475 13.2748 11.375C13.4665 11.2583 13.6582 11.2 13.8665 11.2C14.0248 11.2 14.1915 11.2333 14.3748 11.3083C14.5582 11.3833 14.7498 11.4916 14.9582 11.6333L17.7165 13.5916C17.9332 13.7416 18.0832 13.9166 18.1748 14.125C18.2582 14.3333 18.3082 14.5416 18.3082 14.775Z" stroke="#A3A3A3" stroke-width="1.5" stroke-miterlimit="10"/>
</svg>
