<svg width="21" height="23" viewBox="0 0 21 23" fill="none" xmlns="http://www.w3.org/2000/svg">
<path fill-rule="evenodd" clip-rule="evenodd" d="M10.3061 0.00012207C14.1627 2.44474 17.6468 3.60128 20.6369 3.32787C21.1592 13.8903 17.2585 20.1281 10.3461 22.7314C3.67077 20.2948 -0.277609 14.3254 0.0152271 3.16767C3.52537 3.35136 6.96911 2.59254 10.3061 0.00012207ZM10.3894 3.61534C13.0193 5.28227 15.3953 6.07087 17.4342 5.88477C17.7904 13.0875 15.1304 17.3411 10.4167 19.1162C10.3869 19.1053 10.3577 19.094 10.3281 19.0829V3.66214L10.3894 3.61534ZM10.3102 1.30521C13.7239 3.46902 16.8081 4.49293 19.4549 4.25078C19.917 13.6003 16.4644 19.122 10.3459 21.4262C4.437 19.2694 0.941647 13.9858 1.201 4.10889C4.30824 4.27168 7.35647 3.59999 10.3102 1.30521Z" fill="black"/>
</svg>
