<svg width="20" height="21" viewBox="0 0 20 21" fill="none" xmlns="http://www.w3.org/2000/svg">
<path d="M10.1331 9.55829C10.0498 9.54996 9.9498 9.54996 9.85814 9.55829C7.8748 9.49163 6.2998 7.86663 6.2998 5.86663C6.2998 3.82496 7.9498 2.16663 9.9998 2.16663C12.0415 2.16663 13.6998 3.82496 13.6998 5.86663C13.6915 7.86663 12.1165 9.49163 10.1331 9.55829Z" stroke="#A3A3A3" stroke-width="1.5" stroke-linecap="round" stroke-linejoin="round"/>
<path d="M5.9666 12.6334C3.94993 13.9834 3.94993 16.1834 5.9666 17.525C8.25827 19.0584 12.0166 19.0584 14.3083 17.525C16.3249 16.175 16.3249 13.975 14.3083 12.6334C12.0249 11.1084 8.2666 11.1084 5.9666 12.6334Z" stroke="#A3A3A3" stroke-width="1.5" stroke-linecap="round" stroke-linejoin="round"/>
</svg>
