<svg width="43" height="43" viewBox="0 0 43 43" fill="none" xmlns="http://www.w3.org/2000/svg">
<rect width="43" height="43" rx="21.5" fill="#FAFAFA"/>
<path d="M21.5 8C14.0442 8 8 14.0442 8 21.5C8 28.9558 14.0442 35 21.5 35C28.9558 35 35 28.9558 35 21.5C35 14.0442 28.9558 8 21.5 8ZM21.5 33.3125C14.9761 33.3125 9.6875 28.0239 9.6875 21.5C9.6875 14.9761 14.9761 9.6875 21.5 9.6875C28.0239 9.6875 33.3125 14.9761 33.3125 21.5C33.3125 28.0239 28.0239 33.3125 21.5 33.3125Z" fill="#999999"/>
<path d="M17.2812 18.9688C18.2132 18.9688 18.9688 18.2132 18.9688 17.2812C18.9688 16.3493 18.2132 15.5938 17.2812 15.5938C16.3493 15.5938 15.5938 16.3493 15.5938 17.2812C15.5938 18.2132 16.3493 18.9688 17.2812 18.9688Z" fill="#999999"/>
<path d="M25.7188 18.9688C26.6507 18.9688 27.4062 18.2132 27.4062 17.2812C27.4062 16.3493 26.6507 15.5938 25.7188 15.5938C24.7868 15.5938 24.0312 16.3493 24.0312 17.2812C24.0312 18.2132 24.7868 18.9688 25.7188 18.9688Z" fill="#999999"/>
<path d="M21.5 20.6562C17.3061 20.6562 13.9062 24.0561 13.9062 28.25H15.5938C15.5938 24.9881 18.2381 22.3438 21.5 22.3438C24.7619 22.3438 27.4062 24.9881 27.4062 28.25H29.0938C29.0938 24.0561 25.6939 20.6562 21.5 20.6562Z" fill="#999999"/>
</svg>
