<svg width="18" height="25" viewBox="0 0 18 25" fill="none" xmlns="http://www.w3.org/2000/svg">
<path d="M9 0.5C8.28125 0.5 7.60156 0.640625 6.96094 0.921875C6.32031 1.1875 5.75781 1.5625 5.27344 2.04688C4.80469 2.51562 4.42969 3.07031 4.14844 3.71094C3.88281 4.35156 3.75 5.03125 3.75 5.75V9.89844C2.82812 10.6484 2.09375 11.5781 1.54688 12.6875C1.01562 13.7812 0.75 14.9688 0.75 16.25C0.75 17.3906 0.960938 18.4609 1.38281 19.4609C1.82031 20.4609 2.41406 21.3359 3.16406 22.0859C3.91406 22.8359 4.78906 23.4219 5.78906 23.8438C6.78906 24.2812 7.85938 24.5 9 24.5C10.1406 24.5 11.2109 24.2812 12.2109 23.8438C13.2109 23.4219 14.0859 22.8359 14.8359 22.0859C15.5859 21.3359 16.1719 20.4609 16.5938 19.4609C17.0312 18.4609 17.25 17.3906 17.25 16.25C17.25 14.9688 16.9766 13.7812 16.4297 12.6875C15.8984 11.5781 15.1719 10.6484 14.25 9.89844V5.75C14.25 5.03125 14.1094 4.35156 13.8281 3.71094C13.5625 3.07031 13.1875 2.51562 12.7031 2.04688C12.2344 1.5625 11.6797 1.1875 11.0391 0.921875C10.3984 0.640625 9.71875 0.5 9 0.5ZM5.25 5.75C5.25 4.71875 5.61719 3.83594 6.35156 3.10156C7.08594 2.36719 7.96875 2 9 2C10.0312 2 10.9141 2.36719 11.6484 3.10156C12.3828 3.83594 12.75 4.71875 12.75 5.75V8.91406C12.1875 8.61719 11.5859 8.39062 10.9453 8.23438C10.3203 8.07812 9.67188 8 9 8C8.32812 8 7.67188 8.07812 7.03125 8.23438C6.40625 8.39062 5.8125 8.61719 5.25 8.91406V5.75ZM15.75 16.25C15.75 17.1875 15.5703 18.0625 15.2109 18.875C14.8672 19.6875 14.3828 20.4062 13.7578 21.0312C13.1484 21.6406 12.4375 22.125 11.625 22.4844C10.8125 22.8281 9.9375 23 9 23C8.0625 23 7.1875 22.8281 6.375 22.4844C5.5625 22.125 4.84375 21.6406 4.21875 21.0312C3.60938 20.4062 3.125 19.6875 2.76562 18.875C2.42188 18.0625 2.25 17.1875 2.25 16.25C2.25 15.3125 2.42188 14.4375 2.76562 13.625C3.125 12.8125 3.60938 12.1016 4.21875 11.4922C4.84375 10.8672 5.5625 10.3828 6.375 10.0391C7.1875 9.67969 8.0625 9.5 9 9.5C9.9375 9.5 10.8125 9.67969 11.625 10.0391C12.4375 10.3828 13.1484 10.8672 13.7578 11.4922C14.3828 12.1016 14.8672 12.8125 15.2109 13.625C15.5703 14.4375 15.75 15.3125 15.75 16.25ZM9 11.75C8.17188 11.75 7.46094 12.0469 6.86719 12.6406C6.28906 13.2188 6 13.9219 6 14.75C6 15.4531 6.21094 16.0703 6.63281 16.6016C7.07031 17.1328 7.60938 17.4766 8.25 17.6328V19.25C8.25 19.4531 8.32031 19.6328 8.46094 19.7891C8.61719 19.9297 8.79688 20 9 20C9.20312 20 9.375 19.9297 9.51562 19.7891C9.67188 19.6328 9.75 19.4531 9.75 19.25V17.6328C10.3906 17.4766 10.9219 17.1328 11.3438 16.6016C11.7812 16.0703 12 15.4531 12 14.75C12 13.9219 11.7031 13.2188 11.1094 12.6406C10.5312 12.0469 9.82812 11.75 9 11.75ZM9 16.25C8.59375 16.25 8.24219 16.1016 7.94531 15.8047C7.64844 15.5078 7.5 15.1562 7.5 14.75C7.5 14.3438 7.64844 13.9922 7.94531 13.6953C8.24219 13.3984 8.59375 13.25 9 13.25C9.40625 13.25 9.75781 13.3984 10.0547 13.6953C10.3516 13.9922 10.5 14.3438 10.5 14.75C10.5 15.1562 10.3516 15.5078 10.0547 15.8047C9.75781 16.1016 9.40625 16.25 9 16.25Z" fill="black"/>
</svg>
