<svg width="40" height="40" viewBox="0 0 40 40" fill="none" xmlns="http://www.w3.org/2000/svg">
<circle cx="20" cy="20" r="20" fill="#56A4FF"/>
<path d="M27.7823 12.2174C27.681 12.1167 27.5532 12.047 27.4137 12.0164C27.2742 11.9858 27.1288 11.9957 26.9948 12.0449L10.4948 18.0449C10.3525 18.0989 10.2299 18.1949 10.1435 18.3202C10.057 18.4454 10.0107 18.594 10.0107 18.7462C10.0107 18.8984 10.057 19.047 10.1435 19.1722C10.2299 19.2975 10.3525 19.3935 10.4948 19.4474L16.9373 22.0199L21.6923 17.2499L22.7498 18.3074L17.9723 23.0849L20.5523 29.5275C20.6078 29.667 20.704 29.7866 20.8284 29.8709C20.9528 29.9551 21.0995 30.0001 21.2498 29.9999C21.4013 29.9968 21.5484 29.9479 21.6716 29.8595C21.7947 29.7711 21.8882 29.6475 21.9398 29.5049L27.9398 13.0049C27.9909 12.8723 28.0032 12.7278 27.9753 12.5883C27.9474 12.4489 27.8805 12.3203 27.7823 12.2174Z" fill="white"/>
</svg>
