<svg width="282" height="164" viewBox="0 0 282 164" fill="none" xmlns="http://www.w3.org/2000/svg">
<rect width="282" height="164" rx="15" fill="#56A4FF" fill-opacity="0.08"/>
<g opacity="0.5">
<path fill-rule="evenodd" clip-rule="evenodd" d="M142.472 79.9427C141.682 79.4179 139.976 77.5398 139.186 76.7388C138.548 76.1035 138.243 75.7859 137.452 75.3025C135.289 73.9906 132.599 74.7087 131.018 76.3107C129.923 77.4017 123.142 84.2791 122.532 84.6796V56.9213C122.532 55.5265 122.629 54.3388 123.988 54.3388H170.484C172.3 54.3388 171.787 57.2942 171.787 59.0757V77.3464C171.344 77.0564 168.723 73.8525 168.418 73.5072L161.72 65.8012C160.513 64.6411 158.336 63.8816 156.256 64.6135C154.301 65.2902 153.011 67.2512 151.611 68.9085C151.306 69.2675 151.056 69.5575 150.765 69.9304L142.472 79.9427ZM116.333 55.6232V89.4302C116.333 93.6699 119.814 97.1915 123.696 97.1915H170.927C171.829 97.1915 173.035 96.7772 173.673 96.4734C175.864 95.4652 178 92.6756 178 90.1483V55.195C178 52.3087 175.781 49.7263 172.994 48.5386C172.106 48.1657 170.692 48 169.471 48H125C120.133 48 116.333 50.9968 116.333 55.6232Z" fill="#9BB4D0" fill-opacity="0.4"/>
<path fill-rule="evenodd" clip-rule="evenodd" d="M104 95.8139V96.8108C104 99.2198 105.909 101.518 107.515 102.39C108.483 102.93 109.618 103.235 110.835 103.539L121.642 106.419C128.63 108.178 136.42 110.545 143.352 112.248C144.514 112.539 145.663 112.857 146.867 113.189C148.153 113.563 149.233 113.799 150.506 114.172C152.706 114.809 156.58 116 158.766 116C161.893 116 164.19 113.799 165.131 110.974L167.843 102.155C153.093 102.155 138.343 102.183 123.593 102.155C119.954 102.155 118.017 101.047 115.623 99.1921C113.658 97.6692 112.067 94.4017 111.804 91.8958L111.79 69.7021C111.347 70.0344 111.61 69.7575 111.195 71.1282L107.764 82.5642C107.432 83.6441 107.127 84.6687 106.809 85.7763C106.463 86.9808 106.159 87.9084 105.813 89.1129C105.425 90.4974 104 94.6925 104 95.8139Z" fill="#9BB4D0" fill-opacity="0.4"/>
</g>
<path d="M89.8582 74.1818H91.9498V83.2702C91.9498 84.2373 91.7227 85.0942 91.2684 85.8409C90.8141 86.5831 90.1753 87.1679 89.3522 87.5952C88.529 88.018 87.5642 88.2294 86.4577 88.2294C85.3556 88.2294 84.393 88.018 83.5699 87.5952C82.7467 87.1679 82.108 86.5831 81.6537 85.8409C81.1994 85.0942 80.9722 84.2373 80.9722 83.2702V74.1818H83.0571V83.1016C83.0571 83.7268 83.1943 84.2823 83.4687 84.7681C83.7475 85.2539 84.1411 85.6362 84.6494 85.9151C85.1577 86.1895 85.7604 86.3267 86.4577 86.3267C87.1594 86.3267 87.7644 86.1895 88.2726 85.9151C88.7854 85.6362 89.1768 85.2539 89.4466 84.7681C89.721 84.2823 89.8582 83.7268 89.8582 83.1016V74.1818ZM94.8191 91.8864V77.6364H96.7892V79.3164H96.9579C97.0749 79.1005 97.2435 78.8509 97.464 78.5675C97.6844 78.2841 97.9902 78.0367 98.3816 77.8253C98.7729 77.6094 99.2902 77.5014 99.9334 77.5014C100.77 77.5014 101.517 77.7128 102.173 78.1357C102.83 78.5585 103.345 79.168 103.719 79.9641C104.096 80.7603 104.285 81.7184 104.285 82.8384C104.285 83.9585 104.099 84.9188 103.725 85.7195C103.352 86.5156 102.839 87.1296 102.187 87.5614C101.535 87.9888 100.79 88.2024 99.9537 88.2024C99.3239 88.2024 98.8089 88.0967 98.4086 87.8853C98.0127 87.6739 97.7024 87.4265 97.4775 87.1431C97.2525 86.8597 97.0794 86.6078 96.9579 86.3874H96.8365V91.8864H94.8191ZM96.796 82.8182C96.796 83.5469 96.9017 84.1856 97.1131 84.7344C97.3245 85.2831 97.6304 85.7127 98.0307 86.0231C98.431 86.329 98.9213 86.4819 99.5016 86.4819C100.104 86.4819 100.608 86.3222 101.013 86.0028C101.418 85.679 101.724 85.2404 101.931 84.6871C102.142 84.1339 102.248 83.5109 102.248 82.8182C102.248 82.1345 102.144 81.5205 101.937 80.9762C101.735 80.4319 101.429 80.0024 101.02 79.6875C100.615 79.3726 100.109 79.2152 99.5016 79.2152C98.9168 79.2152 98.4221 79.3659 98.0172 79.6673C97.6169 79.9686 97.3133 80.3892 97.1064 80.929C96.8994 81.4687 96.796 82.0985 96.796 82.8182ZM108.563 74.1818V88H106.546V74.1818H108.563ZM115.642 88.2092C114.671 88.2092 113.823 87.9865 113.099 87.5412C112.375 87.0959 111.812 86.4729 111.412 85.6722C111.012 84.8716 110.812 83.936 110.812 82.8654C110.812 81.7904 111.012 80.8503 111.412 80.0451C111.812 79.2399 112.375 78.6147 113.099 78.1694C113.823 77.7241 114.671 77.5014 115.642 77.5014C116.614 77.5014 117.462 77.7241 118.186 78.1694C118.91 78.6147 119.473 79.2399 119.873 80.0451C120.273 80.8503 120.473 81.7904 120.473 82.8654C120.473 83.936 120.273 84.8716 119.873 85.6722C119.473 86.4729 118.91 87.0959 118.186 87.5412C117.462 87.9865 116.614 88.2092 115.642 88.2092ZM115.649 86.5156C116.279 86.5156 116.801 86.3492 117.215 86.0163C117.628 85.6835 117.934 85.2404 118.132 84.6871C118.335 84.1339 118.436 83.5244 118.436 82.8587C118.436 82.1974 118.335 81.5902 118.132 81.0369C117.934 80.4792 117.628 80.0316 117.215 79.6942C116.801 79.3569 116.279 79.1882 115.649 79.1882C115.015 79.1882 114.489 79.3569 114.07 79.6942C113.657 80.0316 113.348 80.4792 113.146 81.0369C112.948 81.5902 112.849 82.1974 112.849 82.8587C112.849 83.5244 112.948 84.1339 113.146 84.6871C113.348 85.2404 113.657 85.6835 114.07 86.0163C114.489 86.3492 115.015 86.5156 115.649 86.5156ZM125.741 88.2294C125.085 88.2294 124.491 88.108 123.96 87.8651C123.429 87.6177 123.009 87.2601 122.698 86.7923C122.392 86.3245 122.24 85.7509 122.24 85.0717C122.24 84.487 122.352 84.0057 122.577 83.6278C122.802 83.25 123.105 82.9509 123.488 82.7305C123.87 82.5101 124.297 82.3436 124.77 82.2312C125.242 82.1187 125.723 82.0333 126.214 81.9748C126.834 81.9028 127.338 81.8443 127.725 81.7994C128.112 81.7499 128.393 81.6712 128.568 81.5632C128.744 81.4553 128.831 81.2798 128.831 81.0369V80.9897C128.831 80.4004 128.665 79.9439 128.332 79.62C128.004 79.2962 127.514 79.1342 126.861 79.1342C126.182 79.1342 125.647 79.2849 125.256 79.5863C124.869 79.8832 124.601 80.2138 124.453 80.5781L122.557 80.1463C122.782 79.5166 123.11 79.0083 123.542 78.6214C123.978 78.2301 124.48 77.9467 125.046 77.7713C125.613 77.5914 126.209 77.5014 126.834 77.5014C127.248 77.5014 127.687 77.5509 128.15 77.6499C128.618 77.7443 129.054 77.9197 129.459 78.1761C129.868 78.4325 130.203 78.7991 130.464 79.2759C130.725 79.7482 130.856 80.3622 130.856 81.1179V88H128.885V86.5831H128.805C128.674 86.844 128.478 87.1004 128.218 87.3523C127.957 87.6042 127.622 87.8133 127.212 87.9798C126.803 88.1462 126.313 88.2294 125.741 88.2294ZM126.18 86.6101C126.738 86.6101 127.214 86.4999 127.61 86.2795C128.011 86.0591 128.314 85.7712 128.521 85.4158C128.733 85.056 128.838 84.6714 128.838 84.2621V82.9261C128.766 82.9981 128.627 83.0656 128.42 83.1286C128.218 83.187 127.986 83.2388 127.725 83.2837C127.464 83.3242 127.21 83.3625 126.963 83.3984C126.715 83.4299 126.508 83.4569 126.342 83.4794C125.95 83.5289 125.593 83.6121 125.269 83.729C124.95 83.846 124.693 84.0147 124.5 84.2351C124.311 84.451 124.216 84.7389 124.216 85.0987C124.216 85.598 124.401 85.9759 124.77 86.2322C125.139 86.4841 125.609 86.6101 126.18 86.6101ZM137.422 88.2024C136.586 88.2024 135.839 87.9888 135.182 87.5614C134.53 87.1296 134.017 86.5156 133.644 85.7195C133.275 84.9188 133.091 83.9585 133.091 82.8384C133.091 81.7184 133.277 80.7603 133.651 79.9641C134.028 79.168 134.546 78.5585 135.203 78.1357C135.859 77.7128 136.604 77.5014 137.436 77.5014C138.079 77.5014 138.596 77.6094 138.988 77.8253C139.383 78.0367 139.689 78.2841 139.905 78.5675C140.126 78.8509 140.297 79.1005 140.418 79.3164H140.54V74.1818H142.557V88H140.587V86.3874H140.418C140.297 86.6078 140.121 86.8597 139.892 87.1431C139.667 87.4265 139.357 87.6739 138.961 87.8853C138.565 88.0967 138.052 88.2024 137.422 88.2024ZM137.868 86.4819C138.448 86.4819 138.938 86.329 139.339 86.0231C139.743 85.7127 140.049 85.2831 140.256 84.7344C140.468 84.1856 140.573 83.5469 140.573 82.8182C140.573 82.0985 140.47 81.4687 140.263 80.929C140.056 80.3892 139.752 79.9686 139.352 79.6673C138.952 79.3659 138.457 79.2152 137.868 79.2152C137.26 79.2152 136.754 79.3726 136.35 79.6875C135.945 80.0024 135.639 80.4319 135.432 80.9762C135.229 81.5205 135.128 82.1345 135.128 82.8182C135.128 83.5109 135.232 84.1339 135.439 84.6871C135.646 85.2404 135.951 85.679 136.356 86.0028C136.766 86.3222 137.269 86.4819 137.868 86.4819ZM150.627 88V74.1818H155.552C156.627 74.1818 157.518 74.3775 158.224 74.7688C158.93 75.1602 159.459 75.6954 159.809 76.3746C160.16 77.0494 160.336 77.8095 160.336 78.6552C160.336 79.5053 160.158 80.27 159.803 80.9492C159.452 81.6239 158.921 82.1592 158.21 82.555C157.504 82.9464 156.616 83.142 155.545 83.142H152.158V81.3743H155.356C156.035 81.3743 156.587 81.2573 157.009 81.0234C157.432 80.785 157.743 80.4612 157.94 80.0518C158.138 79.6425 158.237 79.177 158.237 78.6552C158.237 78.1334 158.138 77.6701 157.94 77.2653C157.743 76.8604 157.43 76.5433 157.003 76.3139C156.58 76.0845 156.022 75.9698 155.329 75.9698H152.711V88H150.627ZM164.635 81.8466V88H162.618V74.1818H164.608V79.3232H164.737C164.979 78.7654 165.35 78.3223 165.85 77.994C166.349 77.6656 167.001 77.5014 167.806 77.5014C168.517 77.5014 169.138 77.6476 169.669 77.94C170.204 78.2324 170.618 78.6687 170.91 79.2489C171.207 79.8247 171.355 80.5444 171.355 81.408V88H169.338V81.6509C169.338 80.8907 169.142 80.3015 168.751 79.8832C168.36 79.4603 167.815 79.2489 167.118 79.2489C166.641 79.2489 166.214 79.3501 165.836 79.5526C165.463 79.755 165.168 80.0518 164.952 80.4432C164.741 80.83 164.635 81.2978 164.635 81.8466ZM178.413 88.2092C177.441 88.2092 176.594 87.9865 175.869 87.5412C175.145 87.0959 174.583 86.4729 174.183 85.6722C173.782 84.8716 173.582 83.936 173.582 82.8654C173.582 81.7904 173.782 80.8503 174.183 80.0451C174.583 79.2399 175.145 78.6147 175.869 78.1694C176.594 77.7241 177.441 77.5014 178.413 77.5014C179.385 77.5014 180.232 77.7241 180.957 78.1694C181.681 78.6147 182.243 79.2399 182.643 80.0451C183.044 80.8503 183.244 81.7904 183.244 82.8654C183.244 83.936 183.044 84.8716 182.643 85.6722C182.243 86.4729 181.681 87.0959 180.957 87.5412C180.232 87.9865 179.385 88.2092 178.413 88.2092ZM178.42 86.5156C179.049 86.5156 179.571 86.3492 179.985 86.0163C180.399 85.6835 180.705 85.2404 180.903 84.6871C181.105 84.1339 181.206 83.5244 181.206 82.8587C181.206 82.1974 181.105 81.5902 180.903 81.0369C180.705 80.4792 180.399 80.0316 179.985 79.6942C179.571 79.3569 179.049 79.1882 178.42 79.1882C177.786 79.1882 177.259 79.3569 176.841 79.6942C176.427 80.0316 176.119 80.4792 175.917 81.0369C175.719 81.5902 175.62 82.1974 175.62 82.8587C175.62 83.5244 175.719 84.1339 175.917 84.6871C176.119 85.2404 176.427 85.6835 176.841 86.0163C177.259 86.3492 177.786 86.5156 178.42 86.5156ZM190.334 77.6364V79.2557H184.673V77.6364H190.334ZM186.191 75.1534H188.208V84.957C188.208 85.3484 188.267 85.643 188.384 85.8409C188.501 86.0343 188.651 86.167 188.836 86.239C189.025 86.3065 189.229 86.3402 189.45 86.3402C189.612 86.3402 189.753 86.329 189.875 86.3065C189.996 86.284 190.091 86.266 190.158 86.2525L190.522 87.919C190.406 87.964 190.239 88.009 190.023 88.054C189.807 88.1035 189.537 88.1304 189.214 88.1349C188.683 88.1439 188.188 88.0495 187.729 87.8516C187.27 87.6536 186.899 87.3478 186.616 86.9339C186.332 86.5201 186.191 86.0006 186.191 85.3754V75.1534ZM196.819 88.2092C195.848 88.2092 195 87.9865 194.276 87.5412C193.551 87.0959 192.989 86.4729 192.589 85.6722C192.188 84.8716 191.988 83.936 191.988 82.8654C191.988 81.7904 192.188 80.8503 192.589 80.0451C192.989 79.2399 193.551 78.6147 194.276 78.1694C195 77.7241 195.848 77.5014 196.819 77.5014C197.791 77.5014 198.639 77.7241 199.363 78.1694C200.087 78.6147 200.649 79.2399 201.05 80.0451C201.45 80.8503 201.65 81.7904 201.65 82.8654C201.65 83.936 201.45 84.8716 201.05 85.6722C200.649 86.4729 200.087 87.0959 199.363 87.5412C198.639 87.9865 197.791 88.2092 196.819 88.2092ZM196.826 86.5156C197.456 86.5156 197.978 86.3492 198.391 86.0163C198.805 85.6835 199.111 85.2404 199.309 84.6871C199.511 84.1339 199.613 83.5244 199.613 82.8587C199.613 82.1974 199.511 81.5902 199.309 81.0369C199.111 80.4792 198.805 80.0316 198.391 79.6942C197.978 79.3569 197.456 79.1882 196.826 79.1882C196.192 79.1882 195.665 79.3569 195.247 79.6942C194.833 80.0316 194.525 80.4792 194.323 81.0369C194.125 81.5902 194.026 82.1974 194.026 82.8587C194.026 83.5244 194.125 84.1339 194.323 84.6871C194.525 85.2404 194.833 85.6835 195.247 86.0163C195.665 86.3492 196.192 86.5156 196.826 86.5156Z" fill="#56A4FF"/>
<path d="M70 55.5H212V52.5H70V55.5ZM220.5 64V99H223.5V64H220.5ZM212 107.5H70V110.5H212V107.5ZM61.5 99V64H58.5V99H61.5ZM70 107.5C65.3056 107.5 61.5 103.694 61.5 99H58.5C58.5 105.351 63.6487 110.5 70 110.5V107.5ZM220.5 99C220.5 103.694 216.694 107.5 212 107.5V110.5C218.351 110.5 223.5 105.351 223.5 99H220.5ZM212 55.5C216.694 55.5 220.5 59.3056 220.5 64H223.5C223.5 57.6487 218.351 52.5 212 52.5V55.5ZM70 52.5C63.6487 52.5 58.5 57.6487 58.5 64H61.5C61.5 59.3056 65.3056 55.5 70 55.5V52.5Z" fill="#56A4FF"/>
</svg>
