<svg width="18" height="23" viewBox="0 0 18 23" fill="none" xmlns="http://www.w3.org/2000/svg">
<path d="M11.743 20.6473L15.7633 16.4209H11.743V20.6473ZM4.2244 8.59892V4.86666H2.9947V3.71741H6.72684V4.86666H5.49901V8.61015L4.2244 8.59892ZM13.3189 8.63822C13.0658 8.64196 12.8136 8.60854 12.5702 8.53902C12.3531 8.47315 12.1587 8.34805 12.0087 8.17778C11.8307 7.96033 11.7069 7.70373 11.6475 7.42908C11.5557 7.0081 11.5142 6.5777 11.524 6.14693C11.514 5.72689 11.558 5.3073 11.655 4.89848C11.7198 4.62319 11.848 4.36682 12.0293 4.14978C12.1788 3.97611 12.373 3.84665 12.5908 3.77543C12.8252 3.70562 13.0688 3.67155 13.3133 3.67436C13.5536 3.6718 13.7938 3.68619 14.032 3.71741C14.2112 3.73992 14.3887 3.77368 14.5636 3.81848C14.6838 3.84859 14.8014 3.88801 14.9155 3.9364V4.92843C14.8331 4.91158 14.7283 4.89286 14.5935 4.87602C14.4588 4.85917 14.3128 4.8442 14.1443 4.83297C13.9759 4.82174 13.7925 4.81612 13.5959 4.81612C13.4696 4.81426 13.3436 4.83001 13.2216 4.86292C13.1193 4.89326 13.0314 4.95979 12.9745 5.05009C12.9024 5.17421 12.8565 5.31181 12.8398 5.45439C12.8077 5.68819 12.7933 5.92407 12.7967 6.16003C12.7943 6.37952 12.8056 6.59893 12.8304 6.81702C12.8433 6.9605 12.8833 7.10024 12.9483 7.2288C13.0037 7.32535 13.0911 7.39951 13.1954 7.43844C13.3296 7.48403 13.4711 7.50496 13.6128 7.5002C13.9441 7.5002 14.2155 7.5002 14.4232 7.48336C14.631 7.46651 14.7975 7.45903 14.9192 7.44218V8.42297C14.7978 8.47027 14.6725 8.50721 14.5449 8.53341C14.3742 8.56769 14.2017 8.59206 14.0283 8.60641C13.8411 8.62325 13.5978 8.63261 13.3264 8.63261L13.3189 8.63822ZM8.61911 8.67379C8.31414 8.68034 8.01179 8.61628 7.73568 8.48661C7.50709 8.37947 7.31272 8.211 7.17417 7.99996C7.04282 7.79993 6.97377 7.56543 6.97577 7.32613C6.97219 7.16176 7.00746 6.99887 7.07872 6.85071C7.15047 6.70946 7.24754 6.58258 7.36508 6.47636C7.49865 6.35079 7.64266 6.23683 7.79557 6.1357L8.87928 5.46375C8.97003 5.41282 9.04611 5.33932 9.10014 5.25037C9.13227 5.18977 9.14958 5.12242 9.15067 5.05383C9.15019 4.97838 9.1207 4.90599 9.06832 4.85169C9.03312 4.81976 8.9916 4.79559 8.94646 4.78076C8.90131 4.76593 8.85355 4.76076 8.80628 4.76558C8.7417 4.76416 8.67766 4.77761 8.61911 4.80489C8.56856 4.83066 8.52637 4.87025 8.49745 4.91907C8.46641 4.97103 8.45082 5.03076 8.45253 5.09127C8.45413 5.19032 8.48189 5.28718 8.53302 5.37203C8.9635 6.16565 10.6948 7.86145 11.3724 8.59892H10.0846L8.1437 6.55123C8.04825 6.45016 7.94343 6.32662 7.82739 6.17688C7.70878 6.02367 7.60946 5.85645 7.53166 5.679C7.44662 5.48892 7.40384 5.28265 7.40626 5.07442C7.40416 4.84139 7.46425 4.61202 7.58033 4.40995C7.69906 4.21009 7.86815 4.04487 8.07071 3.93079C8.2955 3.80562 8.549 3.74111 8.80628 3.74361C9.04713 3.73753 9.28534 3.79499 9.49693 3.9102C9.68327 4.01406 9.83838 4.16594 9.94614 4.35006C10.0529 4.53558 10.1085 4.74618 10.1071 4.96025C10.1083 5.17833 10.0514 5.3928 9.94239 5.58167C9.824 5.7825 9.66378 5.95549 9.4726 6.08891C9.18998 6.28731 8.47686 6.72905 8.28595 6.9705C8.22777 7.04648 8.19857 7.14072 8.2036 7.23629C8.20123 7.31826 8.22338 7.39908 8.26724 7.46838C8.31327 7.53501 8.37858 7.58595 8.4544 7.61438C8.54037 7.64993 8.6328 7.66715 8.7258 7.66492C8.89118 7.66408 9.05404 7.62432 9.20121 7.54887C9.36638 7.46963 9.51501 7.35975 9.63918 7.22506C9.92682 6.92251 10.0847 6.51943 10.079 6.10201H11.0954C11.0965 6.3708 11.0676 6.63887 11.0093 6.90125C10.9552 7.14974 10.8616 7.38797 10.7322 7.60689C10.6036 7.81953 10.4321 8.0031 10.2288 8.14596L10.0416 8.23767L9.85443 8.33126C9.67089 8.45115 9.46838 8.53912 9.25549 8.59143C9.05463 8.64134 8.84853 8.6671 8.64157 8.66817L8.61911 8.67379ZM3.5431 16.8458H7.14235V17.8809H3.5431V16.8458ZM3.5431 14.2254H8.65093V15.2605H3.5431V14.2254ZM3.5431 11.6049H14.455V12.64H3.5431V11.5937V11.6049ZM18 15.8819C18.0002 16.0281 17.9525 16.1703 17.8643 16.2869C17.7761 16.4035 17.6522 16.488 17.5115 16.5276L11.5913 22.753C11.5291 22.8301 11.4504 22.8923 11.361 22.9351C11.2717 22.9778 11.1738 23.0001 11.0748 23.0001H1.2035C1.04538 23.0004 0.888772 22.9694 0.742647 22.909C0.596521 22.8486 0.463751 22.76 0.351947 22.6482C0.240143 22.5364 0.151504 22.4036 0.09111 22.2575C0.030716 22.1113 -0.000245016 21.9547 1.46011e-06 21.7966V1.20366C-0.000245016 1.04554 0.030716 0.888923 0.09111 0.742792C0.151504 0.596662 0.240143 0.463887 0.351947 0.35208C0.463751 0.240273 0.596521 0.151631 0.742647 0.0912349C0.888772 0.0308391 1.04538 -0.000122954 1.2035 0.00012353H16.7965C17.1155 0.000618558 17.4214 0.127578 17.647 0.353177C17.8725 0.578775 17.9995 0.884611 18 1.20366V15.8819ZM16.658 15.077V1.34404H1.34387V21.6618H10.3991V15.7527C10.3991 15.5735 10.4703 15.4017 10.597 15.2749C10.7237 15.1482 10.8956 15.077 11.0748 15.077H16.658Z" fill="black"/>
</svg>
