<svg width="24" height="24" viewBox="0 0 24 24" fill="none" xmlns="http://www.w3.org/2000/svg">
<path d="M20 4H4C2.897 4 2 4.897 2 6V18C2 19.103 2.897 20 4 20H20C21.103 20 22 19.103 22 18V6C22 4.897 21.103 4 20 4ZM4 18V6H20L20.001 18H4Z" fill="black"/>
<path d="M6.5 11H9.5C9.63261 11 9.75979 10.9473 9.85355 10.8536C9.94732 10.7598 10 10.6326 10 10.5V8.5C10 8.36739 9.94732 8.24021 9.85355 8.14645C9.75979 8.05268 9.63261 8 9.5 8H6.5C6.36739 8 6.24021 8.05268 6.14645 8.14645C6.05268 8.24021 6 8.36739 6 8.5V10.5C6 10.6326 6.05268 10.7598 6.14645 10.8536C6.24021 10.9473 6.36739 11 6.5 11ZM6 14H12V16.001H6V14ZM13 14H18V16.001H13V14Z" fill="black"/>
</svg>
